<svg xmlns="http://www.w3.org/2000/svg" viewBox="0 0 251.37 58.72"><defs><style>.cls-1{fill:#fff;}.cls-2{fill:none;stroke:#e8e8e8;stroke-linecap:round;stroke-linejoin:round;stroke-width:0.7px;}</style></defs><g id="katman_2" data-name="katman 2"><g id="_" data-name="+"><path class="cls-1" d="M32.75,18.3c-.08,1.51-.13,2.5-.15,3-.12,2-.22,4.16-.33,6.48s-.15,4.44-.15,6.32a45.21,45.21,0,0,0,.58,8.41v.13a.62.62,0,0,1-.14.38.52.52,0,0,1-.34.2,2.38,2.38,0,0,1-.47.07,3,3,0,0,1-2-.85,3,3,0,0,1-1.05-2c-.12-2-.17-4.18-.17-6.43q0-2.11.06-5.85l0-4.43a26.58,26.58,0,0,0-.14-3.44q-2.82,3.86-4.87,3.85a2.28,2.28,0,0,1-1.36-.51,1.64,1.64,0,0,1-.54-.89v-.1a.56.56,0,0,1,.13-.37.6.6,0,0,1,.38-.21,6,6,0,0,0,2.86-1.34,14.41,14.41,0,0,0,3.47-4.41,6.9,6.9,0,0,1,1.29-1.86,2.34,2.34,0,0,1,1.6-.83,1.36,1.36,0,0,1,1.23.65,1.91,1.91,0,0,1,.14.78C32.86,15.71,32.83,16.79,32.75,18.3Z"/><path class="cls-1" d="M36.17,18.91a8.88,8.88,0,0,1,2.95-3.81A7.91,7.91,0,0,1,44,13.62a7.19,7.19,0,0,1,5.21,2.13,13.27,13.27,0,0,1,3.28,5.58A23.94,23.94,0,0,1,53.6,28.7a27.48,27.48,0,0,1-1,7.71,13.05,13.05,0,0,1-3.27,5.77,7.63,7.63,0,0,1-5.63,2.21A7.93,7.93,0,0,1,40,43.63a5.29,5.29,0,0,1-2.23-2A5.16,5.16,0,0,1,37.06,39a4.89,4.89,0,0,1,1.07-3.2A3.52,3.52,0,0,1,41,34.42a2.36,2.36,0,0,1,1.14.29c.35.19.53.41.53.66a.66.66,0,0,1-.21.48.58.58,0,0,1-.44.2,1.92,1.92,0,0,0-1.6.94,4,4,0,0,0,.29,4.56,2.88,2.88,0,0,0,2.4,1.11q3,0,4.46-4.26A32.63,32.63,0,0,0,49,28.09,28.82,28.82,0,0,0,48.43,22a12.81,12.81,0,0,0-1.81-4.56,3.34,3.34,0,0,0-5.44-.61,6.8,6.8,0,0,0-1.57,2.87,13,13,0,0,0-.51,3.66,10.85,10.85,0,0,0,.58,3.59,7,7,0,0,0,1.56,2.69,3,3,0,0,0,2.18,1,3.25,3.25,0,0,0,2.79-1.43,8.4,8.4,0,0,0,1.37-2.86.25.25,0,0,1,.13-.19.2.2,0,0,1,.21,0,1,1,0,0,1,.39.41,1.16,1.16,0,0,1,.15.57,4.62,4.62,0,0,1-.75,2.27,6.63,6.63,0,0,1-2.16,2.19,5.84,5.84,0,0,1-3.29.92,5.94,5.94,0,0,1-3.65-1.19,7.74,7.74,0,0,1-2.51-3.18,10.59,10.59,0,0,1-.88-4.34A12.94,12.94,0,0,1,36.17,18.91Z"/><path class="cls-1" d="M64.39,42.79a.66.66,0,0,1,.14.41.72.72,0,0,1-.34.65,1.6,1.6,0,0,1-.85.2,2.83,2.83,0,0,1-1.69-.61,4.41,4.41,0,0,1-1.39-2.06,10.4,10.4,0,0,1-.57-3.76,11.68,11.68,0,0,1,.79-4.15,23.43,23.43,0,0,1,1.87-3.94q1.09-1.82,2.86-4.44c1.29-1.9,2.25-3.42,2.86-4.56a7.54,7.54,0,0,0,1-3.13,22.54,22.54,0,0,1-5.14.51,30.61,30.61,0,0,1-3.68-.26,15,15,0,0,1-3.68-.88c-1.06-.42-1.6-1-1.6-1.69a1.57,1.57,0,0,1,.19-.69.59.59,0,0,1,.9-.29,5.89,5.89,0,0,0,2,.8,13.25,13.25,0,0,0,3.4.39,17.72,17.72,0,0,0,5.65-.95,6.66,6.66,0,0,1,2.18-.45,2.56,2.56,0,0,1,1.68.58A3.93,3.93,0,0,1,72,15.8,3,3,0,0,1,72.36,17a.35.35,0,0,1,0,.2v.07a22,22,0,0,1-1.53,4.51c-.73,1.63-1.71,3.66-3,6.11-1.45,2.89-2.53,5.16-3.22,6.81a11.59,11.59,0,0,0-1,4.33A7.15,7.15,0,0,0,64.39,42.79Z"/><path class="cls-1" d="M90.41,17.57a27.61,27.61,0,0,1,2,11.06,24.56,24.56,0,0,1-1.17,7.93,12.3,12.3,0,0,1-3.27,5.33,6.89,6.89,0,0,1-4.75,1.89,6.37,6.37,0,0,1-4.64-2,13.48,13.48,0,0,1-3.12-5.49,24.8,24.8,0,0,1-1.1-7.54,29.1,29.1,0,0,1,.51-4.93,20.39,20.39,0,0,1,1.52-5.06c.67-1.44,1.49-2.18,2.45-2.23A8.1,8.1,0,0,1,81,14.1a4.88,4.88,0,0,1,2.93-1Q88.46,13.11,90.41,17.57ZM86.32,39.66a16.19,16.19,0,0,1-2.5-3,37.92,37.92,0,0,1-2.83-5,28.86,28.86,0,0,1-2.06-5.71,28.25,28.25,0,0,0-.2,3.27,32.09,32.09,0,0,0,.53,5.86A13.13,13.13,0,0,0,81,39.75a3.56,3.56,0,0,0,3.08,1.85C84.94,41.6,85.7,41,86.32,39.66ZM81.09,16.72a.89.89,0,0,1,.17.51c-.28,0-.58.44-.91,1.33a21.12,21.12,0,0,0-.88,3.4,34,34,0,0,0,1.82,6,46.78,46.78,0,0,0,2.84,5.94A22.61,22.61,0,0,0,87,38a26.08,26.08,0,0,0,.89-4.57,38.06,38.06,0,0,0,.29-4.31,41,41,0,0,0-.48-5.72,25,25,0,0,0-1.52-5.87C85.45,15.83,84.57,15,83.5,15a3.44,3.44,0,0,0-1.77.5,2.89,2.89,0,0,0-1.14,1h.1A.51.51,0,0,1,81.09,16.72Z"/><path class="cls-1" d="M94.87,13.44a1.8,1.8,0,0,1,.55-1.24,1.69,1.69,0,0,1,1.25-.58,2.14,2.14,0,0,1,1.63.58,2.12,2.12,0,0,1,.55,1.54A4.77,4.77,0,0,1,98,16.21a7.69,7.69,0,0,1-2.27,2.32.62.62,0,0,1-.37.11.72.72,0,0,1-.58-.28c-.16-.19-.16-.35,0-.5a3.76,3.76,0,0,0,.9-1.82,1.13,1.13,0,0,0-.13-.5c-.09-.16-.15-.27-.17-.32A2.93,2.93,0,0,1,94.87,13.44Z"/><path class="cls-1" d="M105.81,38.3a30.05,30.05,0,0,1-1.07-8.82,79,79,0,0,1,.48-8.35,20.53,20.53,0,0,1-3.92-.72c-1-.31-1.46-.68-1.46-1.1a.8.8,0,0,1,.22-.57.73.73,0,0,1,.56-.24,3.11,3.11,0,0,1,.89.14,4.6,4.6,0,0,0,1.22.3,21.19,21.19,0,0,0,2.71.11c.13-.91.23-1.66.32-2.24s.14-.95.16-1.1a3.55,3.55,0,0,1,1.21-1.91A2.9,2.9,0,0,1,109,13a1.27,1.27,0,0,1,.52.08.43.43,0,0,1,.26.29q-.42,3.09-.67,5.61c1.16-.08,2.16-.16,3-.26l1.59-.19a1.21,1.21,0,0,1,.86.36,2.74,2.74,0,0,1,.57.79,1.8,1.8,0,0,1,.21.67.94.94,0,0,1-.65.89,5.49,5.49,0,0,1-1.8.23l-1.49,0c-.79-.05-1.42-.08-1.89-.08h-.63q-.45,4.88-.45,9.1a27.06,27.06,0,0,0,.67,7.11c.44,1.49,1,2.24,1.71,2.24s1.19-.49,1.8-1.46a11.33,11.33,0,0,0,1.35-3.55,3.08,3.08,0,0,1,.06-.39,1.23,1.23,0,0,1,.15-.48.29.29,0,0,1,.27-.17,1.11,1.11,0,0,1,.78.43,1.17,1.17,0,0,1,.41.8,6.41,6.41,0,0,1-.28,1.44,7.13,7.13,0,0,1-.87,2,9.83,9.83,0,0,1-2.15,2.49,4.71,4.71,0,0,1-2.9.81Q106.89,41.73,105.81,38.3Z"/><path class="cls-1" d="M116,39.47a8.73,8.73,0,0,1-1.87-5.76A10.32,10.32,0,0,1,115.2,29a9.12,9.12,0,0,1,2.66-3.26,5.13,5.13,0,0,1,3-1.17,4.81,4.81,0,0,1,2.42.65A5.2,5.2,0,0,1,125.15,27a4.43,4.43,0,0,1,.71,2.41,3.84,3.84,0,0,1-.73,2.43,4.92,4.92,0,0,1-1.46,1.36c-.5.27-1.15.58-2,.93a9.84,9.84,0,0,1-3.68.85L118,35a5.92,5.92,0,0,0,.67,2.36,5.59,5.59,0,0,0,1.56,1.93,3.32,3.32,0,0,0,2.11.76,4,4,0,0,0,3.2-1.54,8.32,8.32,0,0,0,1.74-3.73c0-.1.06-.24.09-.43a1.73,1.73,0,0,1,.15-.44.31.31,0,0,1,.28-.17,1.11,1.11,0,0,1,.78.43,1.21,1.21,0,0,1,.41.8,6.72,6.72,0,0,1-.3,1.43,8.93,8.93,0,0,1-.85,2A6.84,6.84,0,0,1,125.06,41a8.36,8.36,0,0,1-3.69.76A6.57,6.57,0,0,1,116,39.47ZM121.46,32a3.67,3.67,0,0,0,1.2-2.84,5.58,5.58,0,0,0-.29-1.86c-.2-.57-.5-.85-.89-.85-1,0-1.8.68-2.42,2a12.84,12.84,0,0,0-1,4.71A5.34,5.34,0,0,0,121.46,32Z"/><path class="cls-1" d="M145.6,34.18a1.17,1.17,0,0,1,.41.8,6.72,6.72,0,0,1-.3,1.43,8.5,8.5,0,0,1-.85,2q-2.12,3.27-5.05,3.3a2.87,2.87,0,0,1-2.71-1.52,8.78,8.78,0,0,1-.78-4.05,25.07,25.07,0,0,1,.17-2.82c.11-1,.28-2.16.5-3.6a29,29,0,0,0,.41-3.41c0-.6-.09-.89-.26-.89-.37-.05-1,.6-1.86,2A24,24,0,0,0,133,32.53a19.16,19.16,0,0,0-1,6.23,2.14,2.14,0,0,0,.18.93,1.42,1.42,0,0,1,.19.63.48.48,0,0,1-.34.45,4,4,0,0,1-1.37.15,2,2,0,0,1-1-.19q-2.16-2.08-2.16-7.39a32,32,0,0,1,.19-3.58c.12-1.15.26-2.11.41-2.88a7.27,7.27,0,0,1,.29-1.26l0,0a.54.54,0,0,1,.55-.41l1.26.19a1.65,1.65,0,0,1,.95.55,1.35,1.35,0,0,1,.39.86c-.05.37-.14,1.22-.28,2.54s-.21,2.65-.24,4a26.52,26.52,0,0,1,1.5-4.14,18.61,18.61,0,0,1,2.32-3.91,3.51,3.51,0,0,1,2.57-1.64,3,3,0,0,1,2.22,1,3.56,3.56,0,0,1,1,2.53,48.91,48.91,0,0,1-.45,5.56c-.25,2.13-.37,3.57-.37,4.31a5,5,0,0,0,.32,2,1.11,1.11,0,0,0,1.09.71,1.73,1.73,0,0,0,1-.65,7.54,7.54,0,0,0,1.24-1.82,9.61,9.61,0,0,0,.91-2.58c0-.1.06-.24.1-.43a1.19,1.19,0,0,1,.15-.44.29.29,0,0,1,.27-.17A1.11,1.11,0,0,1,145.6,34.18Z"/><path class="cls-1" d="M165.36,41.47a2.08,2.08,0,0,1-.61-1.35,1.3,1.3,0,0,1,1.3-1.23,1.72,1.72,0,0,1,.69.19,1.06,1.06,0,0,0,1.58-.46,5.74,5.74,0,0,0,1.26-2.14,11.37,11.37,0,0,0,.55-3.9,9.93,9.93,0,0,0-.42-2.78c-.29-1-.69-1.45-1.21-1.45s-1.26.6-1.86,1.8a23.51,23.51,0,0,0-1.52,4.07,38.64,38.64,0,0,0-.89,3.78c0,.25,0,.52-.07.82a4.38,4.38,0,0,1-.15.8,2.2,2.2,0,0,1-.48.76,3.25,3.25,0,0,1-.6.59,1.07,1.07,0,0,1-.67.19c-.32,0-.77-.69-1.35-2.08a30.24,30.24,0,0,1-1.56-5.42,34.84,34.84,0,0,1-.69-7,29.88,29.88,0,0,1,.77-6.76,16.11,16.11,0,0,1,2.2-5.44,4.14,4.14,0,0,1,3.42-2.13,2.77,2.77,0,0,1,2.24,1.13,5.28,5.28,0,0,1,.91,3.36A17.75,17.75,0,0,1,167,22.54c-.83,2.32-1.76,4.56-2.78,6.74a33.5,33.5,0,0,1-1.54,3.12c.12,1.21.27,2.3.44,3.26a18.15,18.15,0,0,1,1.06-4.34,12,12,0,0,1,2.23-3.84,4.17,4.17,0,0,1,3.21-1.58,3.51,3.51,0,0,1,3.17,1.77,8.39,8.39,0,0,1,1.1,4.51,11.69,11.69,0,0,1-.56,3.91A14,14,0,0,1,171.84,39c-.05.09-.18.33-.41.7a6.2,6.2,0,0,0,4.31-2.26A5.34,5.34,0,0,0,176.85,34a.48.48,0,0,1,.17-.37.56.56,0,0,1,.39-.15.68.68,0,0,1,.33.11,2.69,2.69,0,0,0,.52.41.5.5,0,0,1,.26.48,1,1,0,0,1,0,.26,7.22,7.22,0,0,1-1,3A6.25,6.25,0,0,1,175.4,40a7.45,7.45,0,0,1-1.29.78,9.12,9.12,0,0,1-1.79.48,10.41,10.41,0,0,1-1.93.19l-.55,0-1,.33A5.74,5.74,0,0,1,168,42a3.32,3.32,0,0,1-1,.13A2.11,2.11,0,0,1,165.36,41.47ZM164.9,23a24.34,24.34,0,0,0,1.26-6.27,5.46,5.46,0,0,0-.33-1.95c-.22-.58-.52-.87-.89-.87s-.75.66-1.21,2a29.76,29.76,0,0,0-1.15,4.94,33.08,33.08,0,0,0-.43,5.56c0,.25.09,1.27.26,3.05A35.35,35.35,0,0,0,164.9,23Z"/><path class="cls-1" d="M178.73,39.49a8.73,8.73,0,0,1-1.88-5.76A10.2,10.2,0,0,1,177.93,29a9.1,9.1,0,0,1,2.65-3.26,5.13,5.13,0,0,1,3-1.17,4.77,4.77,0,0,1,2.41.65A5.15,5.15,0,0,1,187.88,27a4.42,4.42,0,0,1,.7,2.41,3.9,3.9,0,0,1-.72,2.43,4.94,4.94,0,0,1-1.47,1.36c-.49.27-1.15.58-2,.93a9.79,9.79,0,0,1-3.67.85l-.07.07a5.91,5.91,0,0,0,.66,2.36,5.83,5.83,0,0,0,1.56,1.93,3.34,3.34,0,0,0,2.12.76,4,4,0,0,0,3.19-1.54A8.11,8.11,0,0,0,190,34.81c0-.1.06-.24.1-.43a1.19,1.19,0,0,1,.15-.44.29.29,0,0,1,.27-.17,1.11,1.11,0,0,1,.78.43,1.17,1.17,0,0,1,.41.8,7.17,7.17,0,0,1-.29,1.43,9,9,0,0,1-.86,2A6.84,6.84,0,0,1,187.78,41a8.36,8.36,0,0,1-3.69.76A6.55,6.55,0,0,1,178.73,39.49ZM184.18,32a3.65,3.65,0,0,0,1.21-2.84,5.58,5.58,0,0,0-.3-1.86c-.2-.57-.49-.85-.89-.85-1,0-1.79.68-2.41,2a12.45,12.45,0,0,0-1,4.71A5.32,5.32,0,0,0,184.18,32Z"/><path class="cls-1" d="M195.91,40.75a8.73,8.73,0,0,1-.83-4.19c0-.85,0-1.84.16-3s.23-2.27.36-3.38c.05-.45.11-1,.2-1.75s.17-1.56.24-2.52a15.47,15.47,0,0,0-1.74.15l-.82.11a.59.59,0,0,0-.3.18A2,2,0,0,0,193,27l-.15.85L192.4,31c-.17,1.29-.34,2.33-.5,3.14a15.53,15.53,0,0,1-.61,2.24.41.41,0,0,1-.3.28.36.36,0,0,1-.37-.09l-.78-.78a.43.43,0,0,1-.11-.45,39.38,39.38,0,0,0,1.41-8.65l-1,0a3.32,3.32,0,0,1-3-1.76,8.1,8.1,0,0,1-1.06-4.21,6.52,6.52,0,0,1,.8-3.29,6.13,6.13,0,0,1,1.91-2.13,3.78,3.78,0,0,1,2-.75,2.37,2.37,0,0,1,2.28,1.23,7.23,7.23,0,0,1,.65,3.34,23.82,23.82,0,0,1-.17,2.62c-.11,1-.23,1.87-.35,2.69l1.78-.21a20.47,20.47,0,0,1,2.3-.16,3.06,3.06,0,0,1,1.6.33,1.28,1.28,0,0,1,.52,1.15c0,.25-.1,1.26-.3,3A55.91,55.91,0,0,0,198.6,35l0,1.82a6,6,0,0,0,.22,1.85.87.87,0,0,0,.89.67,2.59,2.59,0,0,0,2.23-1.56,13.73,13.73,0,0,0,1.37-3.49.46.46,0,0,1,.22-.3.84.84,0,0,1,.41-.11.77.77,0,0,1,.41.15l.48.52A.41.41,0,0,1,205,35a16,16,0,0,1-2.34,5.14,4.53,4.53,0,0,1-3.86,2.06A3,3,0,0,1,195.91,40.75ZM191.66,20a11.57,11.57,0,0,0-.26-2.76c-.17-.71-.46-1.06-.85-1.06s-.68.28-.91.85a5.16,5.16,0,0,0-.35,2,9.87,9.87,0,0,0,.55,3.19,4,4,0,0,0,1.45,2.19A25.68,25.68,0,0,0,191.66,20Z"/><path class="cls-1" d="M204.75,39.65a11.16,11.16,0,0,1-1.25-5q0-.45,0-1.38a33.92,33.92,0,0,1,.18-3.56c.12-1.14.27-2.1.43-2.88a6.65,6.65,0,0,1,.28-1.17l0,0a.73.73,0,0,1,.22-.3.53.53,0,0,1,.3-.11l1.3.19a1.59,1.59,0,0,1,.93.54,1.5,1.5,0,0,1,.4.87c0,.2-.07.62-.14,1.26s-.16,1.5-.25,2.58-.13,2.1-.13,3.06l0,1.15c.12,3.29.86,4.94,2.19,4.94a1.79,1.79,0,0,0,1.06-.65,7.55,7.55,0,0,0,1.26-1.82,10,10,0,0,0,.91-2.58,3.08,3.08,0,0,1,.06-.39,1.22,1.22,0,0,1,.16-.48.36.36,0,0,1,.3-.17,1.11,1.11,0,0,1,.78.43,1.21,1.21,0,0,1,.41.8,6.72,6.72,0,0,1-.3,1.43,8.93,8.93,0,0,1-.85,2,6.87,6.87,0,0,1-3.86,3.15,5.71,5.71,0,0,1-1.23.15A3.52,3.52,0,0,1,204.75,39.65Zm.44-17.16a2.36,2.36,0,0,1-.57-1.64,2.6,2.6,0,0,1,.66-1.94,2.71,2.71,0,0,1,1.79-.73,1.51,1.51,0,0,1,1.13.56,2.84,2.84,0,0,1,.5,1.89,2.25,2.25,0,0,1-.8,1.84,2.56,2.56,0,0,1-1.61.65A1.57,1.57,0,0,1,205.19,22.49Z"/><path class="cls-1" d="M217.1,41.79a1.93,1.93,0,0,1-.48-1.36,2.17,2.17,0,0,1,.55-1.63,2.35,2.35,0,0,1,1.49-.61,1.27,1.27,0,0,1,1,.47,2.35,2.35,0,0,1,.42,1.58,1.91,1.91,0,0,1-.67,1.54,2.12,2.12,0,0,1-1.35.54A1.32,1.32,0,0,1,217.1,41.79Z"/><path class="cls-1" d="M223.11,41.79a1.93,1.93,0,0,1-.48-1.36,2.17,2.17,0,0,1,.56-1.63,2.33,2.33,0,0,1,1.49-.61,1.25,1.25,0,0,1,.94.47,2.35,2.35,0,0,1,.42,1.58,1.88,1.88,0,0,1-.67,1.54,2.12,2.12,0,0,1-1.34.54A1.33,1.33,0,0,1,223.11,41.79Z"/><path class="cls-1" d="M229.13,41.79a1.93,1.93,0,0,1-.48-1.36,2.17,2.17,0,0,1,.55-1.63,2.35,2.35,0,0,1,1.49-.61,1.27,1.27,0,0,1,.95.47,2.35,2.35,0,0,1,.42,1.58,1.91,1.91,0,0,1-.67,1.54,2.14,2.14,0,0,1-1.35.54A1.32,1.32,0,0,1,229.13,41.79Z"/><rect class="cls-2" x="0.35" y="0.35" width="250.67" height="58.02"/></g></g></svg>