<svg xmlns="http://www.w3.org/2000/svg" viewBox="0 0 59 59"><defs><style>.cls-1{fill:#030910;}.cls-2{fill:#fff;}</style></defs><g id="katman_2" data-name="katman 2"><g id="_" data-name="+"><rect class="cls-1" width="59" height="59"/><path class="cls-2" d="M29.94,17.47a36.66,36.66,0,0,1-.52,5c-.09.64-.23,1.27-.34,1.9a.63.63,0,0,0,0,.24A16.54,16.54,0,0,0,33,30.73a11.18,11.18,0,0,0,2.3,1.61.45.45,0,0,0,.26,0,30.92,30.92,0,0,1,5.44-.3,8.23,8.23,0,0,1,2.41.41,3.82,3.82,0,0,1,.64.32,2,2,0,0,1,.87,1.39,5.93,5.93,0,0,1-.14,1.26c-.2,1-1,1.31-2,1.35a10.8,10.8,0,0,1-3.1-.44,22.73,22.73,0,0,1-5-2,.59.59,0,0,0-.36-.07,64.53,64.53,0,0,0-6.9,1.45c-1.22.33-2.43.7-3.65,1.05a.67.67,0,0,0-.42.35,38.91,38.91,0,0,1-3.12,4.72A9.21,9.21,0,0,1,17.9,44a2.52,2.52,0,0,1-2.19.39,6.35,6.35,0,0,1-1.21-.57,1.17,1.17,0,0,1-.37-1.34,4.5,4.5,0,0,1,1-1.77,12.78,12.78,0,0,1,3.17-2.64c.93-.57,1.91-1.06,2.86-1.6a.61.61,0,0,0,.24-.21,104.58,104.58,0,0,0,5.29-10.46,1.52,1.52,0,0,0,.08-1.11,40.84,40.84,0,0,1-1.07-5.12,10.77,10.77,0,0,1,0-3.67,1.7,1.7,0,0,1,1.71-1.45,7.66,7.66,0,0,1,.83,0,1.49,1.49,0,0,1,1.08.59,2.84,2.84,0,0,1,.61,1.63C30,17,29.94,17.21,29.94,17.47ZM24.35,35.14a50.76,50.76,0,0,1,8.06-2.24A16.72,16.72,0,0,1,28,27.67,53.11,53.11,0,0,1,24.35,35.14Zm3.79-13.57h.11c.13-.32.28-.64.38-1a7.18,7.18,0,0,0,.2-3.29A7.5,7.5,0,0,0,28.5,16a1.44,1.44,0,0,0-.37-.49c-.14-.13-.26-.07-.31.11a3,3,0,0,0-.08.51,17,17,0,0,0,.1,3.7C27.92,20.41,28,21,28.14,21.57ZM38.32,33.83a17.16,17.16,0,0,0,3.52,1.25,3.66,3.66,0,0,0,1.71,0c.25-.07.35-.26.18-.46a3,3,0,0,0-1.6-.7A14.72,14.72,0,0,0,38.32,33.83Zm-18,4.24-.91.79a15.53,15.53,0,0,0-3.09,3.53c-.12.2-.22.42-.33.62l.08.06C17.94,41.84,19.07,39.92,20.28,38.07Z"/></g></g></svg>